<mxfile host="app.diagrams.net" modified="2024-04-09T15:56:14.018Z" agent="Mozilla/5.0 (Windows NT 10.0; Win64; x64) AppleWebKit/537.36 (KHTML, like Gecko) Chrome/125.0.0.0 Safari/537.36" etag="7qpbI82viGGOPa9Hchpi" version="24.2.2" type="github">
  <diagram name="Page-1" id="9m9eDdmpkT3ez1bignwG">
    <mxGraphModel dx="1112" dy="511" grid="1" gridSize="10" guides="1" tooltips="1" connect="1" arrows="1" fold="1" page="0" pageScale="1" pageWidth="850" pageHeight="1100" math="0" shadow="0">
      <root>
        <mxCell id="0" />
        <mxCell id="1" parent="0" />
        <mxCell id="J1Z8JfwcWtsD32Xz1usJ-3" style="edgeStyle=orthogonalEdgeStyle;rounded=0;orthogonalLoop=1;jettySize=auto;html=1;entryX=0.5;entryY=0;entryDx=0;entryDy=0;" edge="1" parent="1" source="J1Z8JfwcWtsD32Xz1usJ-1" target="J1Z8JfwcWtsD32Xz1usJ-2">
          <mxGeometry relative="1" as="geometry" />
        </mxCell>
        <mxCell id="J1Z8JfwcWtsD32Xz1usJ-1" value="user click Signup" style="rounded=1;whiteSpace=wrap;html=1;" vertex="1" parent="1">
          <mxGeometry x="240" y="90" width="120" height="60" as="geometry" />
        </mxCell>
        <mxCell id="J1Z8JfwcWtsD32Xz1usJ-5" style="edgeStyle=orthogonalEdgeStyle;rounded=0;orthogonalLoop=1;jettySize=auto;html=1;entryX=0.5;entryY=0;entryDx=0;entryDy=0;" edge="1" parent="1" source="J1Z8JfwcWtsD32Xz1usJ-2" target="J1Z8JfwcWtsD32Xz1usJ-4">
          <mxGeometry relative="1" as="geometry" />
        </mxCell>
        <mxCell id="J1Z8JfwcWtsD32Xz1usJ-2" value="enter personal information details" style="rounded=0;whiteSpace=wrap;html=1;" vertex="1" parent="1">
          <mxGeometry x="240" y="210" width="120" height="60" as="geometry" />
        </mxCell>
        <mxCell id="J1Z8JfwcWtsD32Xz1usJ-6" style="edgeStyle=orthogonalEdgeStyle;rounded=0;orthogonalLoop=1;jettySize=auto;html=1;entryX=1;entryY=0.5;entryDx=0;entryDy=0;" edge="1" parent="1" source="J1Z8JfwcWtsD32Xz1usJ-4" target="J1Z8JfwcWtsD32Xz1usJ-2">
          <mxGeometry relative="1" as="geometry">
            <Array as="points">
              <mxPoint x="380" y="380" />
              <mxPoint x="380" y="240" />
            </Array>
          </mxGeometry>
        </mxCell>
        <mxCell id="J1Z8JfwcWtsD32Xz1usJ-7" value="Yes" style="edgeLabel;html=1;align=center;verticalAlign=middle;resizable=0;points=[];" vertex="1" connectable="0" parent="J1Z8JfwcWtsD32Xz1usJ-6">
          <mxGeometry x="0.25" y="2" relative="1" as="geometry">
            <mxPoint as="offset" />
          </mxGeometry>
        </mxCell>
        <mxCell id="J1Z8JfwcWtsD32Xz1usJ-10" style="edgeStyle=orthogonalEdgeStyle;rounded=0;orthogonalLoop=1;jettySize=auto;html=1;entryX=0.5;entryY=0;entryDx=0;entryDy=0;" edge="1" parent="1" source="J1Z8JfwcWtsD32Xz1usJ-4" target="J1Z8JfwcWtsD32Xz1usJ-9">
          <mxGeometry relative="1" as="geometry" />
        </mxCell>
        <mxCell id="J1Z8JfwcWtsD32Xz1usJ-11" value="No" style="edgeLabel;html=1;align=center;verticalAlign=middle;resizable=0;points=[];" vertex="1" connectable="0" parent="J1Z8JfwcWtsD32Xz1usJ-10">
          <mxGeometry x="-0.15" y="-2" relative="1" as="geometry">
            <mxPoint as="offset" />
          </mxGeometry>
        </mxCell>
        <mxCell id="J1Z8JfwcWtsD32Xz1usJ-4" value="Identify violation check" style="rhombus;whiteSpace=wrap;html=1;" vertex="1" parent="1">
          <mxGeometry x="260" y="340" width="80" height="80" as="geometry" />
        </mxCell>
        <mxCell id="J1Z8JfwcWtsD32Xz1usJ-13" style="edgeStyle=orthogonalEdgeStyle;rounded=0;orthogonalLoop=1;jettySize=auto;html=1;" edge="1" parent="1" source="J1Z8JfwcWtsD32Xz1usJ-9" target="J1Z8JfwcWtsD32Xz1usJ-12">
          <mxGeometry relative="1" as="geometry" />
        </mxCell>
        <mxCell id="J1Z8JfwcWtsD32Xz1usJ-9" value="enter password" style="rounded=0;whiteSpace=wrap;html=1;" vertex="1" parent="1">
          <mxGeometry x="240" y="500" width="120" height="60" as="geometry" />
        </mxCell>
        <mxCell id="J1Z8JfwcWtsD32Xz1usJ-16" style="edgeStyle=orthogonalEdgeStyle;rounded=0;orthogonalLoop=1;jettySize=auto;html=1;" edge="1" parent="1" source="J1Z8JfwcWtsD32Xz1usJ-12" target="J1Z8JfwcWtsD32Xz1usJ-15">
          <mxGeometry relative="1" as="geometry" />
        </mxCell>
        <mxCell id="J1Z8JfwcWtsD32Xz1usJ-17" value="Yes" style="edgeLabel;html=1;align=center;verticalAlign=middle;resizable=0;points=[];" vertex="1" connectable="0" parent="J1Z8JfwcWtsD32Xz1usJ-16">
          <mxGeometry x="-0.2571" y="4" relative="1" as="geometry">
            <mxPoint as="offset" />
          </mxGeometry>
        </mxCell>
        <mxCell id="J1Z8JfwcWtsD32Xz1usJ-19" style="edgeStyle=orthogonalEdgeStyle;rounded=0;orthogonalLoop=1;jettySize=auto;html=1;" edge="1" parent="1" source="J1Z8JfwcWtsD32Xz1usJ-12" target="J1Z8JfwcWtsD32Xz1usJ-18">
          <mxGeometry relative="1" as="geometry" />
        </mxCell>
        <mxCell id="J1Z8JfwcWtsD32Xz1usJ-20" value="No" style="edgeLabel;html=1;align=center;verticalAlign=middle;resizable=0;points=[];" vertex="1" connectable="0" parent="J1Z8JfwcWtsD32Xz1usJ-19">
          <mxGeometry x="0.0571" y="2" relative="1" as="geometry">
            <mxPoint as="offset" />
          </mxGeometry>
        </mxCell>
        <mxCell id="J1Z8JfwcWtsD32Xz1usJ-12" value="Is password strong?" style="rhombus;whiteSpace=wrap;html=1;" vertex="1" parent="1">
          <mxGeometry x="260" y="630" width="80" height="80" as="geometry" />
        </mxCell>
        <mxCell id="J1Z8JfwcWtsD32Xz1usJ-15" value="Create basic account" style="ellipse;whiteSpace=wrap;html=1;aspect=fixed;" vertex="1" parent="1">
          <mxGeometry x="260" y="800" width="80" height="80" as="geometry" />
        </mxCell>
        <mxCell id="J1Z8JfwcWtsD32Xz1usJ-21" style="edgeStyle=orthogonalEdgeStyle;rounded=0;orthogonalLoop=1;jettySize=auto;html=1;entryX=1;entryY=0.5;entryDx=0;entryDy=0;" edge="1" parent="1" source="J1Z8JfwcWtsD32Xz1usJ-18" target="J1Z8JfwcWtsD32Xz1usJ-15">
          <mxGeometry relative="1" as="geometry">
            <Array as="points">
              <mxPoint x="540" y="840" />
            </Array>
          </mxGeometry>
        </mxCell>
        <mxCell id="J1Z8JfwcWtsD32Xz1usJ-18" value="weak password warning" style="rounded=0;whiteSpace=wrap;html=1;" vertex="1" parent="1">
          <mxGeometry x="480" y="640" width="120" height="60" as="geometry" />
        </mxCell>
      </root>
    </mxGraphModel>
  </diagram>
</mxfile>
